<svg width="55" height="35" viewBox="0 0 55 35" fill="none" xmlns="http://www.w3.org/2000/svg">
<path d="M20.5371 13.2684C21.375 12.7593 21.7992 11.8365 21.7992 10.5426C21.7992 9.11072 21.2372 8.14564 20.1235 7.67893C19.1901 7.36082 17.981 7.20171 16.5386 7.20171H8.50986V14.0214H17.3023C18.6174 14.0214 19.7099 13.7668 20.5371 13.2684ZM19.6675 10.5426C19.6675 11.0304 19.5827 11.3486 19.4236 11.4441C18.9358 11.741 18.2251 11.8895 17.2918 11.8895H10.6418V9.33344H16.5388C17.7161 9.33344 18.6706 9.45004 19.3705 9.67282C19.4766 9.72585 19.6675 9.81067 19.6675 10.5425V10.5426ZM20.4419 19.3667C19.7206 19.0379 18.6918 18.8576 17.3979 18.847H8.51002V27.0562H17.2918C18.607 27.0562 19.6464 26.8758 20.3782 26.5153C21.7252 25.8471 22.4039 24.5532 22.4039 22.6759C22.4146 21.085 21.757 19.9713 20.4419 19.3668V19.3667ZM10.6418 20.9789H17.3978C18.6917 20.9895 19.3069 21.191 19.5614 21.3077C19.9433 21.488 20.2826 21.7212 20.2826 22.6758C20.2826 24.1925 19.7099 24.4682 19.4342 24.6062C19.2326 24.7016 18.6387 24.9244 17.2917 24.9244H10.6418V20.9789ZM45.3448 15.2622C44.4009 14.4561 43.2237 14.0424 41.8343 14.0424C40.3282 14.0424 39.1297 14.4773 38.2919 15.347C37.454 16.2061 36.9237 17.3833 36.7222 18.847L36.7116 18.9425H46.9464L46.9358 18.8576C46.8191 17.2773 46.2888 16.0682 45.3448 15.2622ZM39.8403 16.8C40.0206 16.6197 40.5084 16.1636 41.8342 16.1636C42.6615 16.1636 43.3297 16.3758 43.8706 16.8H39.8403ZM54.7311 17.9667C54.4129 15.9197 53.7023 14.0848 52.6206 12.5045C51.6236 11.0197 50.3827 9.85298 48.9085 9.00449V0.540839H34.7812V9.08936C33.9221 9.60899 33.1373 10.2242 32.4054 10.956C30.7402 12.6318 29.6478 14.7848 29.1069 17.3726C28.7145 16.7999 28.2478 16.2802 27.7281 15.8242C27.7891 15.7542 27.8492 15.6835 27.9084 15.6121C29.1493 14.1166 29.775 12.1863 29.775 9.8636C29.775 7.64694 29.1811 5.69542 28.0038 4.06211C26.0841 1.44236 22.9235 0.0742412 18.6173 0H0.523438V34.2576H17.5356C19.1902 34.2576 20.7704 34.1091 22.2129 33.8015C23.825 33.4621 25.2462 32.8257 26.4447 31.903C27.5052 31.1076 28.3856 30.1212 29.0856 28.9652C29.3613 28.5303 29.6052 28.0743 29.8068 27.597C30.5068 29.3046 31.5249 30.7152 32.8825 31.8076C35.5128 33.9288 38.5885 35 42.0249 35C46.2036 35 49.534 33.6849 51.9203 31.0864C53.5006 29.4106 54.4021 27.6713 54.6142 25.9106L54.7521 24.7228H54.9006L54.9324 22.7076C54.9855 20.7349 54.9112 19.1334 54.7309 17.9667H54.7311ZM23.9949 15.9514L23.8252 16.0362L24.0055 16.0999C25.5221 16.6514 26.6782 17.5317 27.4525 18.7302C28.2267 19.9287 28.6191 21.4029 28.6191 23.0999C28.6191 24.8605 28.1737 26.4621 27.2828 27.8727C26.7207 28.806 26.0101 29.5909 25.1722 30.2273C24.2283 30.9484 23.0829 31.4575 21.7996 31.7227C20.4949 31.9984 19.0738 32.1363 17.5571 32.1363H2.65549V2.13179H18.5328C22.1707 2.18477 24.7798 3.25603 26.2858 5.31358C27.1979 6.57574 27.654 8.10302 27.654 9.87423C27.654 11.6879 27.1873 13.162 26.2752 14.2651C25.7555 14.8803 24.9919 15.4424 23.9949 15.9514ZM41.8343 7.26501C41.3039 7.26501 40.7842 7.28621 40.2858 7.33925H36.9131V2.67258H46.7873V7.33925H43.4146C42.8949 7.29684 42.3646 7.26501 41.8343 7.26501ZM36.5735 22.7074C36.669 24.9665 37.4646 26.5681 38.9494 27.4802C39.8509 28.0423 40.9434 28.3287 42.2055 28.3287C43.5524 28.3287 44.6555 27.9787 45.4933 27.2893C45.9493 26.9181 46.3524 26.4091 46.6918 25.7727H52.5039C52.3236 27.0455 51.613 28.35 50.3721 29.6652C48.3994 31.8076 45.5993 32.8894 42.0357 32.8894C39.0979 32.8894 36.4675 31.9773 34.2297 30.1636C31.9918 28.3606 30.8569 25.3697 30.8569 21.297C30.8569 17.4788 31.8857 14.4985 33.9008 12.4621C35.619 10.7333 37.8039 9.7257 40.4023 9.46051H43.2978C44.6447 9.59837 45.8963 9.91659 47.0311 10.4256C48.5689 11.115 49.8523 12.218 50.8493 13.7029C51.7508 15.0074 52.3447 16.5559 52.6098 18.2847C52.769 19.3028 52.8326 20.7559 52.8007 22.6225H36.5734V22.7074H36.5736H36.5735ZM44.157 25.6347C43.6903 26.0166 43.0539 26.1968 42.2055 26.1968C41.3357 26.1968 40.6464 26.0271 40.0843 25.6771C39.8085 25.5074 39.4691 25.2529 39.1934 24.7438H44.8252C44.6131 25.1468 44.3902 25.4438 44.1569 25.6347H44.157Z" fill="#FA26A0"/>
</svg>
