<svg width="35" height="35" viewBox="0 0 35 35" fill="none" xmlns="http://www.w3.org/2000/svg">
<path d="M17.5 0C22.2633 0 22.8501 0.0345168 24.714 0.10355C26.5434 0.172584 27.8205 0.483235 28.9596 0.931953C30.1331 1.38067 31.0996 1.96746 32.0661 2.93393C33.0325 3.90039 33.6193 4.86686 34.068 6.04043C34.5168 7.17949 34.8274 8.45661 34.8965 10.286C34.9655 12.1499 35 12.7367 35 17.5C35 22.2633 34.9655 22.8501 34.8965 24.714C34.8274 26.5434 34.5168 27.8205 34.068 28.9596C33.6193 30.1331 33.0325 31.0996 32.0661 32.0661C31.0996 33.0325 30.1331 33.6193 28.9596 34.068C27.8205 34.5168 26.5434 34.8274 24.714 34.8965C22.8501 34.9655 22.2633 35 17.5 35C12.7367 35 12.1499 34.9655 10.286 34.8965C8.45661 34.8274 7.17949 34.5168 6.04043 34.068C4.86686 33.6193 3.90039 33.0325 2.93393 32.0661C1.96746 31.0996 1.38067 30.1331 0.931953 28.9596C0.483235 27.8205 0.172584 26.5434 0.10355 24.714C0.0345168 22.8501 0 22.2633 0 17.5C0 12.7367 0.0345168 12.1499 0.10355 10.286C0.172584 8.45661 0.483235 7.17949 0.931953 6.04043C1.38067 4.86686 1.96746 3.90039 2.93393 2.93393C3.90039 1.96746 4.86686 1.38067 6.04043 0.931953C7.17949 0.483235 8.45661 0.172584 10.286 0.10355C12.1499 0.0345168 12.7367 0 17.5 0ZM17.5 2.27811C12.5296 2.27811 11.9428 2.31262 10.0099 2.38166C8.21499 2.45069 7.214 2.79586 6.55819 3.03748C4.86686 3.72781 3.72781 4.86686 3.03748 6.55819C2.79586 7.214 2.45069 8.21499 2.38166 10.0099C2.31262 11.9428 2.27811 12.5296 2.27811 17.5C2.27811 22.4704 2.31262 23.0572 2.38166 24.9901C2.45069 26.785 2.79586 27.786 3.03748 28.4418C3.72781 30.1331 4.86686 31.2722 6.55819 31.9625C7.214 32.2041 8.21499 32.5493 10.0099 32.6183C11.9428 32.6874 12.5296 32.7219 17.5 32.7219C22.4704 32.7219 23.0572 32.6874 24.9901 32.6183C26.785 32.5493 27.786 32.2041 28.4418 31.9625C30.1331 31.2722 31.2722 30.1331 31.9625 28.4418C32.2041 27.786 32.5493 26.785 32.6183 24.9901C32.6874 23.0572 32.7219 22.4704 32.7219 17.5C32.7219 12.5296 32.6874 11.9428 32.6183 10.0099C32.5493 8.21499 32.2041 7.214 31.9625 6.55819C31.2722 4.86686 30.1331 3.72781 28.4418 3.03748C27.786 2.79586 26.785 2.45069 24.9901 2.38166C23.0572 2.31262 22.4704 2.27811 17.5 2.27811ZM17.5 24.5069C21.3659 24.5069 24.5069 21.3659 24.5069 17.5C24.5069 13.6341 21.3659 10.4931 17.5 10.4931C13.6341 10.4931 10.4931 13.6341 10.4931 17.5C10.4931 21.3659 13.6341 24.5069 17.5 24.5069ZM17.5 8.52564C22.4704 8.52564 26.4744 12.5296 26.4744 17.5C26.4744 22.4704 22.4704 26.4744 17.5 26.4744C12.5296 26.4744 8.52564 22.4704 8.52564 17.5C8.52564 12.5296 12.5296 8.52564 17.5 8.52564ZM28.9596 8.18047C28.9596 9.35404 27.9931 10.2515 26.8195 10.2515C25.646 10.2515 24.7485 9.35404 24.7485 8.18047C24.7485 7.0069 25.646 6.04043 26.8195 6.04043C27.9931 6.04043 28.9596 7.0069 28.9596 8.18047Z" fill="#FA26A0"/>
</svg>
