<svg width="37" height="35" viewBox="0 0 37 35" fill="none" xmlns="http://www.w3.org/2000/svg">
<path d="M35.5748 34.9927H28.1579C27.6333 34.9927 27.2093 34.5687 27.2093 34.0441V22.0996C27.2093 18.0031 25.0964 18.0031 24.3993 18.0031C22.5235 18.0031 21.7258 19.4836 21.467 20.1233C21.3448 20.4108 21.2873 20.8995 21.2873 21.5823V34.0514C21.2873 34.576 20.8633 35 20.3387 35H12.9147C12.6632 35 12.4188 34.8994 12.2392 34.7198C12.0595 34.5401 11.9589 34.2957 11.9661 34.0441C11.9661 33.8429 12.0667 13.8133 11.9661 11.765C11.9517 11.5063 12.0451 11.2548 12.2248 11.0679C12.4045 10.881 12.6488 10.7732 12.9147 10.7732H20.3387C20.8633 10.7732 21.2874 11.1972 21.2874 11.7219V12.2824C22.5379 11.1685 24.3418 10.2486 27.0296 10.2486C32.9731 10.2486 36.5234 14.3594 36.5234 21.2444V34.0441C36.5234 34.5687 36.0994 34.9927 35.5748 34.9927ZM29.1066 33.0955L34.6333 33.0953V21.2443C34.6333 15.4589 31.8664 12.1458 27.0368 12.1458C23.8099 12.1458 22.2432 13.7556 21.2586 15.2289C21.1436 15.617 20.7771 15.9045 20.3459 15.9045H20.2956C19.9506 15.9045 19.6344 15.7176 19.4692 15.4158C19.3398 15.1786 19.311 14.9055 19.3973 14.654V12.6633H13.885C13.9353 16.6232 13.885 29.4374 13.8706 33.0883H19.3901V21.5749C19.3901 20.6191 19.4907 19.9292 19.7063 19.4046C20.54 17.3419 22.2935 16.0986 24.3921 16.0986C27.3818 16.0986 29.0994 18.2835 29.0994 22.0924V33.0954L29.1066 33.0955ZM8.81108 34.9926H1.38709C0.862454 34.9926 0.438465 34.5686 0.438465 34.044V11.7218C0.438465 11.1971 0.862454 10.7731 1.38709 10.7731H8.81108C9.33572 10.7731 9.75971 11.1971 9.75971 11.7218V34.044C9.75971 34.5686 9.33572 34.9926 8.81108 34.9926ZM2.33579 33.0954H7.86242V12.6704H2.33583L2.33579 33.0954ZM5.10267 9.62319L5.05233 9.62316C2.12729 9.62316 0 7.59648 0 4.808C0 2.02671 2.16323 0 5.15294 0C8.09235 0 10.1909 1.96917 10.2484 4.78643C10.2484 7.59648 8.08522 9.62319 5.10267 9.62319ZM5.15294 1.90453C3.20531 1.90453 1.89733 3.07599 1.89733 4.81523C1.89733 6.52567 3.19098 7.72587 5.05237 7.72587H5.10264C7.04311 7.72587 8.35108 6.5544 8.35108 4.8152C8.31515 3.05442 7.05747 1.90453 5.15294 1.90453Z" fill="#FA26A0"/>
</svg>
